<mxfile host="Electron" agent="Mozilla/5.0 (Windows NT 10.0; Win64; x64) AppleWebKit/537.36 (KHTML, like Gecko) draw.io/24.7.17 Chrome/128.0.6613.36 Electron/32.0.1 Safari/537.36" version="24.7.17">
  <diagram name="Page-1" id="2-yq-2Yjbyb76FJI6pMr">
    <mxGraphModel dx="1434" dy="884" grid="1" gridSize="10" guides="1" tooltips="1" connect="1" arrows="1" fold="1" page="1" pageScale="1" pageWidth="827" pageHeight="1169" math="1" shadow="0">
      <root>
        <mxCell id="0" />
        <mxCell id="1" parent="0" />
        <mxCell id="oWZj46wqxGFJ3fI6Mas_-39" value="" style="rounded=0;whiteSpace=wrap;html=1;rotation=-55;" parent="1" vertex="1">
          <mxGeometry x="544" y="296.7" width="149" height="13.3" as="geometry" />
        </mxCell>
        <mxCell id="oWZj46wqxGFJ3fI6Mas_-31" value="" style="endArrow=none;html=1;rounded=0;dashed=1;" parent="1" edge="1">
          <mxGeometry width="50" height="50" relative="1" as="geometry">
            <mxPoint x="658" y="480" as="sourcePoint" />
            <mxPoint x="730" y="480" as="targetPoint" />
          </mxGeometry>
        </mxCell>
        <mxCell id="oWZj46wqxGFJ3fI6Mas_-33" value="\(y\)" style="text;html=1;align=center;verticalAlign=middle;whiteSpace=wrap;rounded=0;" parent="1" vertex="1">
          <mxGeometry x="669" y="453" width="60" height="30" as="geometry" />
        </mxCell>
        <mxCell id="oWZj46wqxGFJ3fI6Mas_-35" value="" style="ellipse;whiteSpace=wrap;html=1;aspect=fixed;" parent="1" vertex="1">
          <mxGeometry x="560" y="348.3" width="31" height="30" as="geometry" />
        </mxCell>
        <mxCell id="oWZj46wqxGFJ3fI6Mas_-38" value="" style="ellipse;whiteSpace=wrap;html=1;aspect=fixed;" parent="1" vertex="1">
          <mxGeometry x="637" y="230" width="40" height="40" as="geometry" />
        </mxCell>
        <mxCell id="oWZj46wqxGFJ3fI6Mas_-40" value="" style="endArrow=none;dashed=1;html=1;rounded=0;dashPattern=1 4;strokeColor=#808080;" parent="1" edge="1">
          <mxGeometry width="50" height="50" relative="1" as="geometry">
            <mxPoint x="659" y="539.8" as="sourcePoint" />
            <mxPoint x="656" y="182" as="targetPoint" />
          </mxGeometry>
        </mxCell>
        <mxCell id="oWZj46wqxGFJ3fI6Mas_-41" value="" style="endArrow=none;dashed=1;html=1;rounded=0;dashPattern=1 4;strokeColor=#808080;" parent="1" edge="1">
          <mxGeometry width="50" height="50" relative="1" as="geometry">
            <mxPoint x="548" y="400" as="sourcePoint" />
            <mxPoint x="680" y="216" as="targetPoint" />
          </mxGeometry>
        </mxCell>
        <mxCell id="oWZj46wqxGFJ3fI6Mas_-43" value="" style="shape=crossbar;whiteSpace=wrap;html=1;rounded=1;direction=south;fontFamily=Helvetica;fontSize=11;fontColor=#FF8000;labelBackgroundColor=default;rotation=-144.9;strokeColor=#000000;" parent="1" vertex="1">
          <mxGeometry x="581.15" y="220.36" width="20" height="136" as="geometry" />
        </mxCell>
        <mxCell id="oWZj46wqxGFJ3fI6Mas_-44" value="&lt;span style=&quot;color: rgba(0, 0, 0, 0); font-family: monospace; font-size: 0px; text-align: start; text-wrap: nowrap; background-color: rgb(251, 251, 251);&quot;&gt;%3CmxGraphModel%3E%3Croot%3E%3CmxCell%20id%3D%220%22%2F%3E%3CmxCell%20id%3D%221%22%20parent%3D%220%22%2F%3E%3CmxCell%20id%3D%222%22%20value%3D%22%5C(%5Ctheta_w%5C)%22%20style%3D%22text%3Bhtml%3D1%3Balign%3Dcenter%3BverticalAlign%3Dmiddle%3BwhiteSpace%3Dwrap%3Brounded%3D0%3BfontColor%3D%23FF0000%3B%22%20vertex%3D%221%22%20parent%3D%221%22%3E%3CmxGeometry%20x%3D%22585%22%20y%3D%22326.36%22%20width%3D%2260%22%20height%3D%2230%22%20as%3D%22geometry%22%2F%3E%3C%2FmxCell%3E%3C%2Froot%3E%3C%2FmxGraphModel%3E&lt;/span&gt;" style="shape=crossbar;whiteSpace=wrap;html=1;rounded=1;direction=south;fontFamily=Helvetica;fontSize=11;fontColor=#FF8000;labelBackgroundColor=default;rotation=-55;strokeColor=#000000;" parent="1" vertex="1">
          <mxGeometry x="627.74" y="345.21" width="20" height="193.95" as="geometry" />
        </mxCell>
        <mxCell id="oWZj46wqxGFJ3fI6Mas_-45" value="\(UL\)" style="text;html=1;align=center;verticalAlign=middle;whiteSpace=wrap;rounded=0;rotation=-54;" parent="1" vertex="1">
          <mxGeometry x="551" y="261" width="60" height="30" as="geometry" />
        </mxCell>
        <mxCell id="oWZj46wqxGFJ3fI6Mas_-46" value="\(LL\)" style="text;html=1;align=center;verticalAlign=middle;whiteSpace=wrap;rounded=0;rotation=35;" parent="1" vertex="1">
          <mxGeometry x="567.74" y="420" width="60" height="30" as="geometry" />
        </mxCell>
        <mxCell id="r4Mdc9I6uflNban5wSoO-3" value="" style="endArrow=none;html=1;rounded=0;curved=1;strokeColor=#FF0000;" parent="1" edge="1">
          <mxGeometry width="50" height="50" relative="1" as="geometry">
            <mxPoint x="631" y="285" as="sourcePoint" />
            <mxPoint x="656" y="299" as="targetPoint" />
            <Array as="points">
              <mxPoint x="637" y="305" />
            </Array>
          </mxGeometry>
        </mxCell>
        <mxCell id="r4Mdc9I6uflNban5wSoO-4" value="\(\theta_s\)" style="text;html=1;align=center;verticalAlign=middle;whiteSpace=wrap;rounded=0;fontColor=#FF0000;" parent="1" vertex="1">
          <mxGeometry x="610" y="291" width="60" height="30" as="geometry" />
        </mxCell>
        <mxCell id="0VD3f0m_VEV85dqsXMDz-2" value="\(\beta\)" style="text;html=1;align=center;verticalAlign=middle;whiteSpace=wrap;rounded=0;fontColor=#000000;" parent="1" vertex="1">
          <mxGeometry x="614" y="361" width="60" height="30" as="geometry" />
        </mxCell>
        <mxCell id="Nhif1REgkAqkTbEUiGux-2" value="&lt;span style=&quot;color: rgba(0, 0, 0, 0); font-family: monospace; font-size: 0px; text-align: start; text-wrap: nowrap; background-color: rgb(251, 251, 251);&quot;&gt;%3CmxGraphModel%3E%3Croot%3E%3CmxCell%20id%3D%220%22%2F%3E%3CmxCell%20id%3D%221%22%20parent%3D%220%22%2F%3E%3CmxCell%20id%3D%222%22%20value%3D%22%5C(%5Ctheta_w%5C)%22%20style%3D%22text%3Bhtml%3D1%3Balign%3Dcenter%3BverticalAlign%3Dmiddle%3BwhiteSpace%3Dwrap%3Brounded%3D0%3BfontColor%3D%23FF0000%3B%22%20vertex%3D%221%22%20parent%3D%221%22%3E%3CmxGeometry%20x%3D%22585%22%20y%3D%22326.36%22%20width%3D%2260%22%20height%3D%2230%22%20as%3D%22geometry%22%2F%3E%3C%2FmxCell%3E%3C%2Froot%3E%3C%2FmxGraphModel%3E&lt;/span&gt;" style="shape=crossbar;whiteSpace=wrap;html=1;rounded=1;direction=south;fontFamily=Helvetica;fontSize=11;fontColor=#FF8000;labelBackgroundColor=default;rotation=0;strokeColor=#FF8000;" parent="1" vertex="1">
          <mxGeometry x="729" y="250" width="20" height="230" as="geometry" />
        </mxCell>
        <mxCell id="Nhif1REgkAqkTbEUiGux-3" value="\(r_0\)" style="text;html=1;align=center;verticalAlign=middle;whiteSpace=wrap;rounded=0;fontColor=#FF8000;" parent="1" vertex="1">
          <mxGeometry x="730" y="345.21" width="60" height="30" as="geometry" />
        </mxCell>
        <mxCell id="oWZj46wqxGFJ3fI6Mas_-36" value="" style="rounded=0;whiteSpace=wrap;html=1;rotation=-145;" parent="1" vertex="1">
          <mxGeometry x="563" y="413" width="186" height="13.3" as="geometry" />
        </mxCell>
        <mxCell id="Nhif1REgkAqkTbEUiGux-6" value="" style="endArrow=none;dashed=1;html=1;rounded=0;dashPattern=1 4;strokeColor=#808080;" parent="1" edge="1">
          <mxGeometry width="50" height="50" relative="1" as="geometry">
            <mxPoint x="777" y="504" as="sourcePoint" />
            <mxPoint x="536" y="336" as="targetPoint" />
          </mxGeometry>
        </mxCell>
        <mxCell id="0VD3f0m_VEV85dqsXMDz-1" value="" style="endArrow=none;html=1;rounded=0;curved=1;" parent="1" edge="1">
          <mxGeometry width="50" height="50" relative="1" as="geometry">
            <mxPoint x="622.5" y="397.3" as="sourcePoint" />
            <mxPoint x="658" y="390" as="targetPoint" />
            <Array as="points">
              <mxPoint x="639.5" y="378.3" />
            </Array>
          </mxGeometry>
        </mxCell>
        <mxCell id="Nhif1REgkAqkTbEUiGux-8" value="" style="endArrow=none;html=1;rounded=0;dashed=1;" parent="1" edge="1">
          <mxGeometry width="50" height="50" relative="1" as="geometry">
            <mxPoint x="729" y="479" as="sourcePoint" />
            <mxPoint x="651" y="231" as="targetPoint" />
          </mxGeometry>
        </mxCell>
        <mxCell id="Nhif1REgkAqkTbEUiGux-9" value="" style="endArrow=none;html=1;rounded=0;curved=1;" parent="1" edge="1">
          <mxGeometry width="50" height="50" relative="1" as="geometry">
            <mxPoint x="657.5" y="328.3" as="sourcePoint" />
            <mxPoint x="682" y="328" as="targetPoint" />
            <Array as="points">
              <mxPoint x="670" y="341" />
            </Array>
          </mxGeometry>
        </mxCell>
        <mxCell id="Nhif1REgkAqkTbEUiGux-10" value="\(\phi\)" style="text;html=1;align=center;verticalAlign=middle;whiteSpace=wrap;rounded=0;fontColor=#000000;" parent="1" vertex="1">
          <mxGeometry x="643" y="328" width="60" height="30" as="geometry" />
        </mxCell>
        <mxCell id="Nhif1REgkAqkTbEUiGux-11" value="\(h\)" style="text;html=1;align=center;verticalAlign=middle;whiteSpace=wrap;rounded=0;fontColor=#000000;" parent="1" vertex="1">
          <mxGeometry x="674" y="350" width="60" height="30" as="geometry" />
        </mxCell>
        <mxCell id="r4Mdc9I6uflNban5wSoO-2" value="\(\theta_w\)" style="text;html=1;align=center;verticalAlign=middle;whiteSpace=wrap;rounded=0;fontColor=#FF0000;" parent="1" vertex="1">
          <mxGeometry x="585" y="326.36" width="60" height="30" as="geometry" />
        </mxCell>
        <mxCell id="r4Mdc9I6uflNban5wSoO-1" value="" style="endArrow=none;html=1;rounded=0;curved=1;strokeColor=#FF0000;" parent="1" edge="1">
          <mxGeometry width="50" height="50" relative="1" as="geometry">
            <mxPoint x="600" y="380" as="sourcePoint" />
            <mxPoint x="592" y="339" as="targetPoint" />
            <Array as="points">
              <mxPoint x="620" y="360" />
            </Array>
          </mxGeometry>
        </mxCell>
      </root>
    </mxGraphModel>
  </diagram>
</mxfile>
